<svg version="1.1" id="Ebene_1" xmlns="http://www.w3.org/2000/svg" xmlns:xlink="http://www.w3.org/1999/xlink" x="0px" y="0px"
	 viewBox="0 0 231 231" style="enable-background:new 0 0 231 231;" xml:space="preserve">
<style type="text/css">
	.st0{fill:#FFFFFF;}
</style>
<rect x="0" y="0" class="st0" width="231" height="231"/>
<g id="elements">
	<path d="M0,0h11v11H0V0z M11,0h11v11H11V0z M22,0h11v11H22V0z M33,0h11v11H33V0z M44,0h11v11H44V0z M55,0h11v11H55V0z M66,0h11v11
		H66V0z M154,0h11v11h-11V0z M165,0h11v11h-11V0z M176,0h11v11h-11V0z M187,0h11v11h-11V0z M198,0h11v11h-11V0z M209,0h11v11h-11V0z
		 M220,0h11v11h-11V0z M0,11h11v11H0V11z M66,11h11v11H66V11z M88,11h11v11H88V11z M99,11h11v11H99V11z M121,11h11v11h-11V11z
		 M132,11h11v11h-11V11z M154,11h11v11h-11V11z M220,11h11v11h-11V11z M0,22h11v11H0V22z M22,22h11v11H22V22z M33,22h11v11H33V22z
		 M44,22h11v11H44V22z M66,22h11v11H66V22z M154,22h11v11h-11V22z M176,22h11v11h-11V22z M187,22h11v11h-11V22z M198,22h11v11h-11
		V22z M220,22h11v11h-11V22z M0,33h11v11H0V33z M22,33h11v11H22V33z M33,33h11v11H33V33z M44,33h11v11H44V33z M66,33h11v11H66V33z
		 M88,33h11v11H88V33z M99,33h11v11H99V33z M110,33h11v11h-11V33z M121,33h11v11h-11V33z M154,33h11v11h-11V33z M176,33h11v11h-11
		V33z M187,33h11v11h-11V33z M198,33h11v11h-11V33z M220,33h11v11h-11V33z M0,44h11v11H0V44z M22,44h11v11H22V44z M33,44h11v11H33
		V44z M44,44h11v11H44V44z M66,44h11v11H66V44z M154,44h11v11h-11V44z M176,44h11v11h-11V44z M187,44h11v11h-11V44z M198,44h11v11
		h-11V44z M220,44h11v11h-11V44z M0,55h11v11H0V55z M66,55h11v11H66V55z M88,55h11v11H88V55z M132,55h11v11h-11V55z M154,55h11v11
		h-11V55z M220,55h11v11h-11V55z M0,66h11v11H0V66z M11,66h11v11H11V66z M22,66h11v11H22V66z M33,66h11v11H33V66z M44,66h11v11H44
		V66z M55,66h11v11H55V66z M66,66h11v11H66V66z M88,66h11v11H88V66z M110,66h11v11h-11V66z M132,66h11v11h-11V66z M154,66h11v11h-11
		V66z M165,66h11v11h-11V66z M176,66h11v11h-11V66z M187,66h11v11h-11V66z M198,66h11v11h-11V66z M209,66h11v11h-11V66z M220,66h11
		v11h-11V66z M99,77h11v11H99V77z M121,77h11v11h-11V77z M0,88h11v11H0V88z M11,88h11v11H11V88z M22,88h11v11H22V88z M33,88h11v11
		H33V88z M44,88h11v11H44V88z M66,88h11v11H66V88z M77,88h11v11H77V88z M88,88h11v11H88V88z M99,88h11v11H99V88z M132,88h11v11h-11
		V88z M143,88h11v11h-11V88z M165,88h11v11h-11V88z M187,88h11v11h-11V88z M209,88h11v11h-11V88z M0,99h11v11H0V99z M22,99h11v11H22
		V99z M33,99h11v11H33V99z M44,99h11v11H44V99z M55,99h11v11H55V99z M77,99h11v11H77V99z M99,99h11v11H99V99z M165,99h11v11h-11V99z
		 M176,99h11v11h-11V99z M187,99h11v11h-11V99z M198,99h11v11h-11V99z M220,99h11v11h-11V99z M0,110h11v11H0V110z M22,110h11v11H22
		V110z M55,110h11v11H55V110z M66,110h11v11H66V110z M77,110h11v11H77V110z M88,110h11v11H88V110z M99,110h11v11H99V110z M110,110
		h11v11h-11V110z M121,110h11v11h-11V110z M132,110h11v11h-11V110z M143,110h11v11h-11V110z M187,110h11v11h-11V110z M198,110h11v11
		h-11V110z M209,110h11v11h-11V110z M0,121h11v11H0V121z M11,121h11v11H11V121z M33,121h11v11H33V121z M44,121h11v11H44V121z
		 M55,121h11v11H55V121z M88,121h11v11H88V121z M99,121h11v11H99V121z M143,121h11v11h-11V121z M165,121h11v11h-11V121z M187,121h11
		v11h-11V121z M198,121h11v11h-11V121z M209,121h11v11h-11V121z M220,121h11v11h-11V121z M0,132h11v11H0V132z M22,132h11v11H22V132z
		 M33,132h11v11H33V132z M55,132h11v11H55V132z M66,132h11v11H66V132z M77,132h11v11H77V132z M88,132h11v11H88V132z M132,132h11v11
		h-11V132z M143,132h11v11h-11V132z M154,132h11v11h-11V132z M165,132h11v11h-11V132z M176,132h11v11h-11V132z M187,132h11v11h-11
		V132z M88,143h11v11H88V143z M99,143h11v11H99V143z M121,143h11v11h-11V143z M165,143h11v11h-11V143z M176,143h11v11h-11V143z
		 M198,143h11v11h-11V143z M209,143h11v11h-11V143z M220,143h11v11h-11V143z M0,154h11v11H0V154z M11,154h11v11H11V154z M22,154h11
		v11H22V154z M33,154h11v11H33V154z M44,154h11v11H44V154z M55,154h11v11H55V154z M66,154h11v11H66V154z M88,154h11v11H88V154z
		 M121,154h11v11h-11V154z M132,154h11v11h-11V154z M154,154h11v11h-11V154z M209,154h11v11h-11V154z M0,165h11v11H0V165z M66,165
		h11v11H66V165z M99,165h11v11H99V165z M110,165h11v11h-11V165z M121,165h11v11h-11V165z M132,165h11v11h-11V165z M143,165h11v11
		h-11V165z M165,165h11v11h-11V165z M176,165h11v11h-11V165z M187,165h11v11h-11V165z M198,165h11v11h-11V165z M209,165h11v11h-11
		V165z M0,176h11v11H0V176z M22,176h11v11H22V176z M33,176h11v11H33V176z M44,176h11v11H44V176z M66,176h11v11H66V176z M88,176h11
		v11H88V176z M132,176h11v11h-11V176z M143,176h11v11h-11V176z M154,176h11v11h-11V176z M176,176h11v11h-11V176z M0,187h11v11H0V187
		z M22,187h11v11H22V187z M33,187h11v11H33V187z M44,187h11v11H44V187z M66,187h11v11H66V187z M88,187h11v11H88V187z M154,187h11v11
		h-11V187z M165,187h11v11h-11V187z M176,187h11v11h-11V187z M209,187h11v11h-11V187z M0,198h11v11H0V198z M22,198h11v11H22V198z
		 M33,198h11v11H33V198z M44,198h11v11H44V198z M66,198h11v11H66V198z M88,198h11v11H88V198z M110,198h11v11h-11V198z M121,198h11
		v11h-11V198z M132,198h11v11h-11V198z M143,198h11v11h-11V198z M165,198h11v11h-11V198z M187,198h11v11h-11V198z M198,198h11v11
		h-11V198z M0,209h11v11H0V209z M66,209h11v11H66V209z M88,209h11v11H88V209z M99,209h11v11H99V209z M110,209h11v11h-11V209z
		 M121,209h11v11h-11V209z M132,209h11v11h-11V209z M143,209h11v11h-11V209z M165,209h11v11h-11V209z M176,209h11v11h-11V209z
		 M187,209h11v11h-11V209z M198,209h11v11h-11V209z M0,220h11v11H0V220z M11,220h11v11H11V220z M22,220h11v11H22V220z M33,220h11v11
		H33V220z M44,220h11v11H44V220z M55,220h11v11H55V220z M66,220h11v11H66V220z M88,220h11v11H88V220z M99,220h11v11H99V220z
		 M121,220h11v11h-11V220z M154,220h11v11h-11V220z M209,220h11v11h-11V220z"/>
</g>
</svg>
